<svg xmlns="http://www.w3.org/2000/svg" viewBox="0 930 1600 1038" font-family="Segoe UI, Arial, sans-serif">
<defs>
    <style>
      .title-main   { font-size:28px; font-weight:700; fill:#1e293b; }
      .title-sub    { font-size:13px; fill:#64748b; }
      .diagram-title{ font-size:20px; font-weight:700; fill:#1e293b; }
      .diagram-sub  { font-size:11px; fill:#64748b; }
      .box-title    { font-size:13px; font-weight:700; }
      .box-tag      { font-size:10px; font-style:italic; }
      .box-desc     { font-size:10.5px; }
      .arrow-label  { font-size:10px; fill:#475569; }
      .section-bg   { fill:#f8fafc; rx:16; }
      .legend-text  { font-size:11px; fill:#475569; }
    </style>

    <!-- Arrowhead markers -->
    <marker id="arr-dark" markerWidth="10" markerHeight="7" refX="9" refY="3.5" orient="auto">
      <polygon points="0 0, 10 3.5, 0 7" fill="#475569"/>
    </marker>
    <marker id="arr-blue" markerWidth="10" markerHeight="7" refX="9" refY="3.5" orient="auto">
      <polygon points="0 0, 10 3.5, 0 7" fill="#3b82f6"/>
    </marker>
    <marker id="arr-green" markerWidth="10" markerHeight="7" refX="9" refY="3.5" orient="auto">
      <polygon points="0 0, 10 3.5, 0 7" fill="#10b981"/>
    </marker>
    <marker id="arr-purple" markerWidth="10" markerHeight="7" refX="9" refY="3.5" orient="auto">
      <polygon points="0 0, 10 3.5, 0 7" fill="#8b5cf6"/>
    </marker>
    <marker id="arr-orange" markerWidth="10" markerHeight="7" refX="9" refY="3.5" orient="auto">
      <polygon points="0 0, 10 3.5, 0 7" fill="#f59e0b"/>
    </marker>

    <!-- Drop shadow -->
    <filter id="shadow" x="-5%" y="-5%" width="110%" height="110%">
      <feDropShadow dx="0" dy="2" stdDeviation="4" flood-color="#00000018"/>
    </filter>
    <filter id="shadow-sm" x="-5%" y="-5%" width="110%" height="110%">
      <feDropShadow dx="0" dy="1" stdDeviation="2" flood-color="#00000012"/>
    </filter>
  </defs>
<!-- Background -->
<rect x="0" y="930" width="1600" height="1038" fill="#f1f5f9"/>
<!-- Header -->
<rect x="0" y="930" width="1600" height="60" fill="#0f172a"/>
<text x="800" y="954" text-anchor="middle" font-size="18" font-weight="700" fill="white">Nivel 2 — Diagrama de Contenedores</text>
<text x="800" y="972" text-anchor="middle" font-size="10" fill="#94a3b8">[Container Diagram] Descomposición en contenedores ejecutables · C4 Model</text>
<text x="800" y="986" text-anchor="middle" font-size="9" fill="#64748b">José Miguel Aya Peralta · Andrés Felipe Calle González · Programación Web CORHUILA 2026A</text>
<!-- Content (original coordinates preserved) -->
  <!-- ║  NIVEL 2 — DIAGRAMA DE CONTENEDORES                     ║ -->
  <!-- ╚══════════════════════════════════════════════════════════╝ -->

  <rect x="40" y="1000" width="1520" height="920" rx="16" fill="white" filter="url(#shadow)"/>
  <rect x="40" y="1000" width="1520" height="46" rx="16" fill="#0f172a"/>
  <rect x="40" y="1030" width="1520" height="16" fill="#0f172a"/>
  <text x="800" y="1028" text-anchor="middle" fill="white" font-size="16" font-weight="700">Nivel 2 — Diagrama de Contenedores</text>
  <text x="800" y="1048" text-anchor="middle" fill="#94a3b8" font-size="10">[Container Diagram] Descomposición del sistema en contenedores ejecutables y sus responsabilidades</text>

  <!-- Boundary box -->
  <rect x="200" y="1110" width="1160" height="740" rx="12" fill="none" stroke="#cbd5e1" stroke-width="2" stroke-dasharray="10,5"/>
  <text x="780" y="1100" text-anchor="middle" fill="#94a3b8" font-size="11" font-style="italic">Sistema de Gestión de Biblioteca Digital [Boundary]</text>

  <!-- Personas (outside) -->
  <g transform="translate(95,1360)">
    <circle cx="0" cy="0" r="30" fill="#dbeafe" stroke="#3b82f6" stroke-width="2"/>
    <text x="0" y="5" text-anchor="middle" font-size="22">👤</text>
    <rect x="-55" y="38" width="110" height="52" rx="6" fill="#3b82f6"/>
    <text x="0" y="56" text-anchor="middle" fill="white" font-size="11" font-weight="700">Bibliotecario</text>
    <text x="0" y="70" text-anchor="middle" fill="#bfdbfe" font-size="8" font-style="italic">[Persona]</text>
    <text x="0" y="82" text-anchor="middle" fill="#dbeafe" font-size="8.5">Administrador</text>
  </g>

  <g transform="translate(95,1560)">
    <circle cx="0" cy="0" r="30" fill="#d1fae5" stroke="#10b981" stroke-width="2"/>
    <text x="0" y="5" text-anchor="middle" font-size="22">👨‍🎓</text>
    <rect x="-55" y="38" width="110" height="52" rx="6" fill="#10b981"/>
    <text x="0" y="56" text-anchor="middle" fill="white" font-size="11" font-weight="700">Lector</text>
    <text x="0" y="70" text-anchor="middle" fill="#a7f3d0" font-size="8" font-style="italic">[Persona]</text>
    <text x="0" y="82" text-anchor="middle" fill="#d1fae5" font-size="8.5">Usuario lector</text>
  </g>

  <!-- CONTAINER: Next.js Frontend -->
  <rect x="250" y="1200" width="260" height="580" rx="10" fill="#1d4ed8" filter="url(#shadow)"/>
  <text x="380" y="1228" text-anchor="middle" fill="#bfdbfe" font-size="9" font-style="italic">[Container: Next.js App]</text>
  <text x="380" y="1246" text-anchor="middle" fill="white" font-size="15" font-weight="700">Frontend</text>
  <text x="380" y="1262" text-anchor="middle" fill="white" font-size="14" font-weight="700">Next.js 15</text>

  <!-- Pages inside frontend -->
  <rect x="268" y="1278" width="224" height="28" rx="5" fill="#1e3a8a"/>
  <text x="380" y="1296" text-anchor="middle" fill="#93c5fd" font-size="10">📊 Dashboard (Panel)</text>

  <rect x="268" y="1312" width="224" height="28" rx="5" fill="#1e3a8a"/>
  <text x="380" y="1330" text-anchor="middle" fill="#93c5fd" font-size="10">📚 Libros / Autores / Categorías</text>

  <rect x="268" y="1346" width="224" height="28" rx="5" fill="#1e3a8a"/>
  <text x="380" y="1364" text-anchor="middle" fill="#93c5fd" font-size="10">🗂️ Ejemplares</text>

  <rect x="268" y="1380" width="224" height="28" rx="5" fill="#1e3a8a"/>
  <text x="380" y="1398" text-anchor="middle" fill="#93c5fd" font-size="10">👤 Usuarios Lectores</text>

  <rect x="268" y="1414" width="224" height="28" rx="5" fill="#1e3a8a"/>
  <text x="380" y="1432" text-anchor="middle" fill="#93c5fd" font-size="10">📖 Préstamos / Devoluciones</text>

  <rect x="268" y="1448" width="224" height="28" rx="5" fill="#1e3a8a"/>
  <text x="380" y="1466" text-anchor="middle" fill="#93c5fd" font-size="10">⚠️ Multas</text>

  <rect x="268" y="1482" width="224" height="28" rx="5" fill="#1e3a8a"/>
  <text x="380" y="1500" text-anchor="middle" fill="#93c5fd" font-size="10">🔖 Reservas</text>

  <text x="380" y="1534" text-anchor="middle" fill="#93c5fd" font-size="9" font-style="italic">Servicios / Interfaces / lib/api.ts</text>
  <text x="380" y="1548" text-anchor="middle" fill="#93c5fd" font-size="9" font-style="italic">Componentes: Modal, Alert, Badge</text>
  <text x="380" y="1564" text-anchor="middle" fill="#93c5fd" font-size="9">Puerto: 3000</text>
  <text x="380" y="1580" text-anchor="middle" fill="#93c5fd" font-size="9">Tailwind CSS · TypeScript</text>
  <text x="380" y="1600" text-anchor="middle" fill="#93c5fd" font-size="9">App Router (dashboard layout)</text>
  <text x="380" y="1616" text-anchor="middle" fill="#93c5fd" font-size="9">React 19 · Next.js 15</text>
  <text x="380" y="1636" text-anchor="middle" fill="#bfdbfe" font-size="8.5">Entrega SPA al navegador</text>
  <text x="380" y="1650" text-anchor="middle" fill="#bfdbfe" font-size="8.5">Consume REST API del backend</text>
  <text x="380" y="1664" text-anchor="middle" fill="#bfdbfe" font-size="8.5">Valida formularios con React state</text>

  <!-- CONTAINER: NestJS Backend -->
  <rect x="670" y="1200" width="260" height="580" rx="10" fill="#065f46" filter="url(#shadow)"/>
  <text x="800" y="1228" text-anchor="middle" fill="#a7f3d0" font-size="9" font-style="italic">[Container: NestJS API]</text>
  <text x="800" y="1246" text-anchor="middle" fill="white" font-size="15" font-weight="700">Backend API</text>
  <text x="800" y="1262" text-anchor="middle" fill="white" font-size="14" font-weight="700">NestJS 11</text>

  <rect x="688" y="1278" width="224" height="28" rx="5" fill="#064e3b"/>
  <text x="800" y="1296" text-anchor="middle" fill="#6ee7b7" font-size="10">📚 /api/v1/libros</text>

  <rect x="688" y="1312" width="224" height="28" rx="5" fill="#064e3b"/>
  <text x="800" y="1330" text-anchor="middle" fill="#6ee7b7" font-size="10">✍️ /api/v1/autores</text>

  <rect x="688" y="1346" width="224" height="28" rx="5" fill="#064e3b"/>
  <text x="800" y="1364" text-anchor="middle" fill="#6ee7b7" font-size="10">🏷️ /api/v1/categorias</text>

  <rect x="688" y="1380" width="224" height="28" rx="5" fill="#064e3b"/>
  <text x="800" y="1398" text-anchor="middle" fill="#6ee7b7" font-size="10">🗂️ /api/v1/ejemplares</text>

  <rect x="688" y="1414" width="224" height="28" rx="5" fill="#064e3b"/>
  <text x="800" y="1432" text-anchor="middle" fill="#6ee7b7" font-size="10">👤 /api/v1/usuarios</text>

  <rect x="688" y="1448" width="224" height="28" rx="5" fill="#064e3b"/>
  <text x="800" y="1466" text-anchor="middle" fill="#6ee7b7" font-size="10">📖 /api/v1/prestamos</text>

  <rect x="688" y="1482" width="224" height="28" rx="5" fill="#064e3b"/>
  <text x="800" y="1500" text-anchor="middle" fill="#6ee7b7" font-size="10">⚠️ /api/v1/multas</text>

  <rect x="688" y="1516" width="224" height="28" rx="5" fill="#064e3b"/>
  <text x="800" y="1534" text-anchor="middle" fill="#6ee7b7" font-size="10">🔖 /api/v1/reservas</text>

  <text x="800" y="1568" text-anchor="middle" fill="#6ee7b7" font-size="9">Puerto: 3001 · ValidationPipe</text>
  <text x="800" y="1582" text-anchor="middle" fill="#6ee7b7" font-size="9">HttpExceptionFilter · CORS</text>
  <text x="800" y="1596" text-anchor="middle" fill="#6ee7b7" font-size="9">ResponseInterceptor · class-validator</text>
  <text x="800" y="1614" text-anchor="middle" fill="#a7f3d0" font-size="8.5">REST API con prefijo /api/v1</text>
  <text x="800" y="1628" text-anchor="middle" fill="#a7f3d0" font-size="8.5">Arquitectura modular por dominio</text>
  <text x="800" y="1642" text-anchor="middle" fill="#a7f3d0" font-size="8.5">Patrón Controller → Service → Repository</text>
  <text x="800" y="1658" text-anchor="middle" fill="#a7f3d0" font-size="8.5">Lógica: límites, multas, disponibilidad</text>
  <text x="800" y="1672" text-anchor="middle" fill="#a7f3d0" font-size="8.5">Transacciones atómicas Prisma</text>

  <!-- CONTAINER: Prisma ORM -->
  <rect x="1090" y="1200" width="240" height="200" rx="10" fill="#4c1d95" filter="url(#shadow)"/>
  <text x="1210" y="1228" text-anchor="middle" fill="#ddd6fe" font-size="9" font-style="italic">[Container: ORM]</text>
  <text x="1210" y="1246" text-anchor="middle" fill="white" font-size="14" font-weight="700">Prisma ORM</text>
  <text x="1210" y="1268" text-anchor="middle" fill="#ddd6fe" font-size="9">schema.prisma</text>
  <text x="1210" y="1286" text-anchor="middle" fill="#ddd6fe" font-size="9">Modelos: Libro, Autor, Categoria</text>
  <text x="1210" y="1300" text-anchor="middle" fill="#ddd6fe" font-size="9">Ejemplar, UsuarioLector</text>
  <text x="1210" y="1314" text-anchor="middle" fill="#ddd6fe" font-size="9">Prestamo, Multa, Reserva</text>
  <text x="1210" y="1328" text-anchor="middle" fill="#ddd6fe" font-size="9">Migraciones automáticas</text>
  <text x="1210" y="1348" text-anchor="middle" fill="#c4b5fd" font-size="8.5">Mapeo ORM ↔ PostgreSQL</text>
  <text x="1210" y="1362" text-anchor="middle" fill="#c4b5fd" font-size="8.5">Queries tipadas con TypeScript</text>
  <text x="1210" y="1378" text-anchor="middle" fill="#c4b5fd" font-size="8.5">$transaction para operaciones atómicas</text>

  <!-- CONTAINER: PostgreSQL -->
  <rect x="1090" y="1430" width="240" height="160" rx="10" fill="#1c1917" filter="url(#shadow)"/>
  <text x="1210" y="1458" text-anchor="middle" fill="#d6d3d1" font-size="9" font-style="italic">[Container: Database]</text>
  <text x="1210" y="1476" text-anchor="middle" fill="white" font-size="14" font-weight="700">PostgreSQL 16</text>
  <text x="1210" y="1496" text-anchor="middle" fill="#d6d3d1" font-size="9">Tablas relacionales</text>
  <text x="1210" y="1510" text-anchor="middle" fill="#d6d3d1" font-size="9">Volumen persistente Docker</text>
  <text x="1210" y="1524" text-anchor="middle" fill="#d6d3d1" font-size="9">Puerto: 5432</text>
  <text x="1210" y="1544" text-anchor="middle" fill="#a8a29e" font-size="8.5">Almacena todos los datos</text>
  <text x="1210" y="1558" text-anchor="middle" fill="#a8a29e" font-size="8.5">del sistema de biblioteca</text>
  <text x="1210" y="1572" text-anchor="middle" fill="#a8a29e" font-size="8.5">Healthcheck con pg_isready</text>

  <!-- CONTAINER: Docker Compose -->
  <rect x="1090" y="1620" width="240" height="130" rx="10" fill="#0369a1" filter="url(#shadow)"/>
  <text x="1210" y="1648" text-anchor="middle" fill="#bae6fd" font-size="9" font-style="italic">[Container: Orchestration]</text>
  <text x="1210" y="1666" text-anchor="middle" fill="white" font-size="14" font-weight="700">Docker Compose</text>
  <text x="1210" y="1686" text-anchor="middle" fill="#bae6fd" font-size="9">Servicios: db, backend, frontend</text>
  <text x="1210" y="1700" text-anchor="middle" fill="#bae6fd" font-size="9">.env para variables de entorno</text>
  <text x="1210" y="1720" text-anchor="middle" fill="#7dd3fc" font-size="8.5">Orquesta todos los contenedores</text>
  <text x="1210" y="1734" text-anchor="middle" fill="#7dd3fc" font-size="8.5">Red interna entre servicios</text>

  <!-- ARROWS — L2 -->
  <!-- Personas → Frontend -->
  <line x1="153" y1="1370" x2="247" y2="1450" stroke="#3b82f6" stroke-width="2" marker-end="url(#arr-blue)"/>
  <line x1="153" y1="1570" x2="247" y2="1510" stroke="#10b981" stroke-width="2" marker-end="url(#arr-green)"/>

  <!-- Frontend → Backend -->
  <line x1="512" y1="1490" x2="667" y2="1490" stroke="#3b82f6" stroke-width="2.5" marker-end="url(#arr-blue)"/>
  <rect x="538" y="1464" width="120" height="26" rx="4" fill="white" opacity="0.95"/>
  <text x="598" y="1475" text-anchor="middle" fill="#3b82f6" font-size="9.5" font-weight="600">HTTP / REST API</text>
  <text x="598" y="1487" text-anchor="middle" fill="#64748b" font-size="8.5">fetch() · apiGet/Post/Put/Patch</text>

  <!-- Backend → Prisma -->
  <line x1="932" y1="1350" x2="1087" y2="1320" stroke="#8b5cf6" stroke-width="2" marker-end="url(#arr-purple)"/>
  <rect x="950" y="1310" width="120" height="26" rx="4" fill="white" opacity="0.95"/>
  <text x="1010" y="1321" text-anchor="middle" fill="#8b5cf6" font-size="9.5" font-weight="600">PrismaService</text>
  <text x="1010" y="1333" text-anchor="middle" fill="#64748b" font-size="8.5">Queries tipadas</text>

  <!-- Prisma → PostgreSQL -->
  <line x1="1210" y1="1402" x2="1210" y2="1427" stroke="#f59e0b" stroke-width="2" marker-end="url(#arr-orange)"/>
  <text x="1232" y="1418" fill="#f59e0b" font-size="9">TCP:5432</text>

  <!-- Backend → Docker -->
  <line x1="800" y1="1782" x2="1087" y2="1710" stroke="#0ea5e9" stroke-width="1.5" stroke-dasharray="6,3" marker-end="url(#arr-blue)"/>
  <text x="910" y="1758" text-anchor="middle" fill="#0369a1" font-size="9">Contenedor Docker</text>


<!-- Footer -->
<rect x="0" y="1940" width="1600" height="28" fill="#0f172a"/>
<text x="800" y="1958" text-anchor="middle" font-size="10" fill="#64748b">C4 Model · Sistema de Gestión de Biblioteca Digital · NestJS + Next.js + PostgreSQL + Prisma + Docker</text>
</svg>